<svg xmlns="http://www.w3.org/2000/svg" viewBox="0 0 32 32" width="32" height="32">
  <defs>
    <linearGradient id="grad1" x1="0%" y1="0%" x2="100%" y2="100%">
      <stop offset="0%" style="stop-color:#2563eb;stop-opacity:1" />
      <stop offset="100%" style="stop-color:#1d4ed8;stop-opacity:1" />
    </linearGradient>
  </defs>
  
  <!-- Background circle -->
  <circle cx="16" cy="16" r="15" fill="url(#grad1)" stroke="#1e40af" stroke-width="1"/>
  
  <!-- Trophy cup -->
  <path d="M12 8h8v2h-8z M10 10h12v2h-12z M8 12h16v1h-16z M9 13h14v1h-14z M10 14h12v1h-12z M11 15h10v1h-10z M12 16h8v1h-8z M13 17h6v1h-6z M14 18h4v1h-4z" fill="#fbbf24"/>
  
  <!-- Trophy handles -->
  <path d="M8 12c0-1 1-2 2-2s2 1 2 2v2c0 1-1 2-2 2s-2-1-2-2v-2z M20 12c0-1 1-2 2-2s2 1 2 2v2c0 1-1 2-2 2s-2-1-2-2v-2z" fill="#f59e0b"/>
  
  <!-- Trophy base -->
  <rect x="13" y="19" width="6" height="2" fill="#fbbf24"/>
  <rect x="14" y="21" width="4" height="1" fill="#f59e0b"/>
  
  <!-- Star/medal -->
  <path d="M16 6l1.5 2.5 3 0.5-2 2 0.5 3-3-1.5-3 1.5 0.5-3-2-2 3-0.5z" fill="#fbbf24"/>
</svg> 